<?xml version="1.0" encoding="utf-8"?>
<!-- Generator: Adobe Illustrator 24.0.1, SVG Export Plug-In . SVG Version: 6.00 Build 0)  -->
<svg version="1.1" id="Capa_1" xmlns="http://www.w3.org/2000/svg" xmlns:xlink="http://www.w3.org/1999/xlink" x="0px" y="0px"
	 viewBox="0 0 792 184.4" style="enable-background:new 0 0 792 184.4;" xml:space="preserve">
<style type="text/css">
	.st0{fill:#003160;}
</style>
<g>
	<g>
		<path class="st0" d="M200.8,56.2h5.5v38.5h-5.5V56.2z"/>
		<path class="st0" d="M235.7,75.7h12.9V92c-4.7,2.1-9.4,3.1-14.1,3.1c-6.4,0-11.5-1.9-15.3-5.6s-5.7-8.3-5.7-13.8
			c0-5.8,2-10.5,5.9-14.3s8.9-5.7,14.9-5.7c2.2,0,4.2,0.2,6.2,0.7s4.4,1.3,7.4,2.6v5.6c-4.6-2.7-9.1-4-13.7-4
			c-4.2,0-7.8,1.4-10.6,4.3c-2.9,2.9-4.3,6.4-4.3,10.6c0,4.4,1.4,7.9,4.3,10.7s6.6,4.2,11.1,4.2c2.2,0,4.8-0.5,7.9-1.5l0.5-0.2v-8
			h-7.4L235.7,75.7L235.7,75.7z"/>
		<path class="st0" d="M256.6,56.2h5.5v33.5h17.3v5h-22.8L256.6,56.2L256.6,56.2z"/>
		<path class="st0" d="M284.3,56.2h21.8v4.9h-16.3v11.7h15.8v4.9h-15.8v11.9h16.8v4.9h-22.3L284.3,56.2L284.3,56.2z"/>
		<path class="st0" d="M322,78.5l-4.2-2.5c-2.6-1.6-4.5-3.2-5.6-4.7c-1.1-1.6-1.7-3.3-1.7-5.4c0-3,1-5.5,3.1-7.4
			c2.1-1.9,4.8-2.8,8.2-2.8c3.2,0,6.2,0.9,8.8,2.7v6.2c-2.8-2.7-5.8-4-9-4c-1.8,0-3.3,0.4-4.4,1.2s-1.7,1.9-1.7,3.2
			c0,1.2,0.4,2.2,1.3,3.2c0.9,1,2.2,2.1,4.1,3.2l4.2,2.5c4.7,2.8,7,6.4,7,10.7c0,3.1-1,5.6-3.1,7.5s-4.8,2.9-8.1,2.9
			c-3.8,0-7.3-1.2-10.4-3.5v-7c3,3.8,6.4,5.7,10.3,5.7c1.7,0,3.2-0.5,4.3-1.4s1.7-2.2,1.7-3.6C327.1,82.8,325.4,80.6,322,78.5z"/>
		<path class="st0" d="M338.4,56.2h5.5v38.5h-5.5V56.2z"/>
		<path class="st0" d="M364.7,55.9h3.9l17.2,38.7h-5.6L375,83.2h-16.4l-4.8,11.4h-5.7L364.7,55.9z M372.8,78.3l-6.2-13.9l-5.8,13.9
			H372.8z"/>
		<path class="st0" d="M405.4,94.6V56.1h12.2c3.7,0,6.6,1,8.8,3c2.2,2,3.3,4.7,3.3,8c0,2.2-0.6,4.2-1.7,5.9c-1.1,1.7-2.6,3-4.6,3.8
			s-4.7,1.2-8.4,1.2h-4.1v16.7H405.4z M416.6,61h-5.7v12h6c2.2,0,4-0.5,5.2-1.6c1.2-1.1,1.8-2.6,1.8-4.5C424,63,421.5,61,416.6,61z"
			/>
		<path class="st0" d="M434.5,56.2h21.8v4.9H440v11.7h15.8v4.9H440v11.9h16.8v4.9h-22.3L434.5,56.2L434.5,56.2z"/>
		<path class="st0" d="M493.2,56.2h5.2v38.5h-4.7L468,65v29.6h-5.2V56.2h4.5l26,29.9L493.2,56.2L493.2,56.2z"/>
		<path class="st0" d="M503.4,56.1h32.1V61h-13.4v33.6h-5.5V61h-13.2L503.4,56.1L503.4,56.1z"/>
		<path class="st0" d="M540.8,56.2h21.8v4.9h-16.3v11.7H562v4.9h-15.8v11.9h16.8v4.9h-22.3L540.8,56.2L540.8,56.2z"/>
		<path class="st0" d="M602.1,85.7v6.1c-4,2.2-8.7,3.3-14,3.3c-4.3,0-7.9-0.9-10.9-2.6c-3-1.7-5.4-4.1-7.1-7.1
			c-1.7-3-2.6-6.3-2.6-9.8c0-5.6,2-10.3,6-14.1s8.9-5.7,14.8-5.7c4,0,8.5,1.1,13.5,3.2v5.9c-4.5-2.6-8.9-3.9-13.2-3.9
			c-4.4,0-8.1,1.4-11,4.2s-4.4,6.3-4.4,10.4c0,4.2,1.4,7.7,4.3,10.4c2.9,2.7,6.5,4.1,11,4.1C593.1,90,597.7,88.6,602.1,85.7z"/>
		<path class="st0" d="M627.8,55.6c6,0,10.9,1.9,14.8,5.7c4,3.8,5.9,8.5,5.9,14.2c0,5.7-2,10.4-6,14.1c-4,3.7-9,5.6-15.1,5.6
			c-5.8,0-10.6-1.9-14.5-5.6s-5.8-8.4-5.8-14c0-5.8,1.9-10.5,5.8-14.3C616.9,57.5,621.8,55.6,627.8,55.6z M628,60.8
			c-4.4,0-8,1.4-10.9,4.1c-2.8,2.8-4.2,6.3-4.2,10.6c0,4.2,1.4,7.6,4.3,10.4c2.8,2.8,6.4,4.1,10.7,4.1c4.3,0,7.9-1.4,10.8-4.2
			c2.9-2.8,4.3-6.3,4.3-10.5c0-4.1-1.4-7.5-4.3-10.3C635.7,62.2,632.2,60.8,628,60.8z"/>
		<path class="st0" d="M664.9,78.5l-4.2-2.5c-2.6-1.6-4.5-3.2-5.6-4.7s-1.7-3.3-1.7-5.4c0-3,1-5.5,3.2-7.4c2.1-1.9,4.8-2.8,8.2-2.8
			c3.2,0,6.2,0.9,8.8,2.7v6.2c-2.8-2.7-5.8-4-9-4c-1.8,0-3.3,0.4-4.4,1.2s-1.7,1.9-1.7,3.2c0,1.2,0.4,2.2,1.3,3.2
			c0.8,1,2.2,2.1,4.1,3.2l4.2,2.5c4.7,2.8,7,6.4,7,10.7c0,3.1-1,5.6-3.1,7.5c-2.1,1.9-4.8,2.9-8.1,2.9c-3.8,0-7.3-1.2-10.4-3.5v-7
			c3,3.8,6.4,5.7,10.3,5.7c1.7,0,3.2-0.5,4.3-1.4s1.7-2.2,1.7-3.6C670,82.8,668.3,80.6,664.9,78.5z"/>
		<path class="st0" d="M677.9,56.1H710V61h-13.4v33.6h-5.5V61h-13.2L677.9,56.1L677.9,56.1z"/>
		<path class="st0" d="M721.9,55.9h3.9L743,94.6h-5.6l-5.1-11.4h-16.4L711,94.6h-5.7L721.9,55.9z M730,78.3l-6.2-13.9L718,78.3H730z
			"/>
		<path class="st0" d="M747.2,56.2h5.5v33.5h17.3v5h-22.8V56.2z"/>
		<path class="st0" d="M221.8,102.7h4.5v17.8c0,2.4-0.2,4.2-0.5,5.5c-0.4,1.2-0.8,2.3-1.3,3.1c-0.5,0.8-1.1,1.6-1.9,2.2
			c-2.5,2.1-5.7,3.2-9.8,3.2c-4.1,0-7.4-1.1-9.8-3.2c-0.8-0.7-1.4-1.4-1.9-2.2c-0.5-0.8-0.9-1.8-1.3-3s-0.5-3-0.5-5.6v-17.8h4.5
			v17.8c0,2.9,0.3,5,1,6.2c0.7,1.2,1.7,2.1,3.1,2.8s3,1.1,4.9,1.1c2.7,0,4.8-0.7,6.5-2.1c0.9-0.8,1.5-1.6,1.9-2.7
			c0.4-1,0.6-2.8,0.6-5.2L221.8,102.7L221.8,102.7z"/>
		<path class="st0" d="M257.5,102.7h4.3v31.4h-3.9l-21-24.2v24.2h-4.2v-31.4h3.6l21.2,24.4L257.5,102.7L257.5,102.7z"/>
		<path class="st0" d="M268.5,102.7h4.5v31.4h-4.5V102.7z"/>
		<path class="st0" d="M280.1,134.1v-31.4h10.6c4.3,0,7.6,0.6,10.1,1.9c2.5,1.3,4.5,3.2,5.9,5.7c1.5,2.5,2.2,5.2,2.2,8.1
			c0,2.1-0.4,4.1-1.2,6c-0.8,1.9-2,3.6-3.5,5.1c-1.5,1.5-3.3,2.6-5.3,3.4c-1.2,0.5-2.3,0.8-3.3,0.9c-1,0.2-2.9,0.2-5.7,0.2H280.1z
			 M290.2,106.7h-5.6v23.4h5.8c2.2,0,4-0.1,5.2-0.5c1.2-0.3,2.3-0.7,3.1-1.2c0.8-0.5,1.6-1.1,2.3-1.7c2.2-2.2,3.3-5.1,3.3-8.5
			c0-3.4-1.1-6.1-3.4-8.2c-0.8-0.8-1.8-1.4-2.9-2c-1.1-0.5-2.1-0.8-3.1-1C293.9,106.8,292.3,106.7,290.2,106.7z"/>
		<path class="st0" d="M322,102.5h3.2l14.1,31.6h-4.6l-4.2-9.3h-13.4l-3.9,9.3h-4.6L322,102.5z M328.6,120.8l-5.1-11.4l-4.7,11.4
			H328.6z"/>
		<path class="st0" d="M355.5,102.7h4.5V130h14.1v4.1h-18.6V102.7z"/>
		<path class="st0" d="M388.1,102.5h3.2l14.1,31.6h-4.6l-4.2-9.3h-13.4l-3.9,9.3h-4.6L388.1,102.5z M394.7,120.8l-5.1-11.4
			l-4.7,11.4H394.7z"/>
		<path class="st0" d="M401.5,102.7h26.2v4h-11v27.4h-4.5v-27.4h-10.8L401.5,102.7L401.5,102.7z"/>
		<path class="st0" d="M432,102.7h4.5v31.4H432V102.7z"/>
		<path class="st0" d="M468.4,102.7h4.3v31.4h-3.9l-21-24.2v24.2h-4.2v-31.4h3.6l21.2,24.4L468.4,102.7L468.4,102.7z"/>
		<path class="st0" d="M494.8,102.3c4.9,0,8.9,1.5,12.1,4.6c3.2,3.1,4.8,6.9,4.8,11.6c0,4.6-1.6,8.5-4.9,11.5
			c-3.3,3-7.4,4.6-12.3,4.6c-4.7,0-8.7-1.5-11.8-4.6c-3.1-3-4.7-6.8-4.7-11.4c0-4.7,1.6-8.6,4.8-11.6
			C485.9,103.8,489.9,102.3,494.8,102.3z M495,106.5c-3.6,0-6.5,1.1-8.9,3.4s-3.5,5.1-3.5,8.6c0,3.4,1.2,6.2,3.5,8.4
			c2.3,2.3,5.2,3.4,8.7,3.4c3.5,0,6.4-1.1,8.8-3.4c2.3-2.3,3.5-5.2,3.5-8.6c0-3.3-1.2-6.1-3.5-8.4
			C501.3,107.7,498.4,106.5,495,106.5z"/>
		<path class="st0" d="M525.5,102.5h3.2l14.1,31.6h-4.6l-4.2-9.3h-13.4l-3.9,9.3H512L525.5,102.5z M532.1,120.8l-5.1-11.4l-4.7,11.4
			C522.3,120.8,532.1,120.8,532.1,120.8z"/>
		<path class="st0" d="M571.1,102.7h4.2v31.4h-4.5v-24.4l-9.7,12.1h-0.8l-9.8-12.1v24.4H546v-31.4h4.3l10.4,12.9L571.1,102.7z"/>
		<path class="st0" d="M582.1,102.7h17.8v4h-13.3v9.6h12.9v4h-12.9v9.8h13.7v4h-18.2L582.1,102.7L582.1,102.7z"/>
		<path class="st0" d="M605.2,134.1v-31.4h7.9c3.2,0,5.7,0.8,7.6,2.4c1.9,1.6,2.8,3.7,2.8,6.4c0,1.8-0.5,3.4-1.4,4.7
			c-0.9,1.3-2.2,2.3-3.9,3c1,0.7,2,1.6,2.9,2.7c1,1.1,2.3,3.1,4,6c1.1,1.8,2,3.1,2.6,4l1.7,2.2h-5.3l-1.4-2.1c0-0.1-0.1-0.2-0.3-0.4
			l-0.9-1.2l-1.4-2.3l-1.5-2.5c-0.9-1.3-1.8-2.3-2.5-3.1c-0.8-0.8-1.5-1.3-2.1-1.7c-0.6-0.3-1.7-0.5-3.1-0.5h-1.2v13.7L605.2,134.1
			L605.2,134.1z M611.1,106.5h-1.3v9.9h1.7c2.3,0,3.8-0.2,4.7-0.6s1.5-1,2-1.8c0.5-0.8,0.7-1.7,0.7-2.7c0-1-0.3-1.9-0.8-2.7
			c-0.5-0.8-1.3-1.4-2.2-1.7C614.8,106.7,613.3,106.5,611.1,106.5z"/>
		<path class="st0" d="M632.9,102.7h4.5v31.4h-4.5V102.7z"/>
		<path class="st0" d="M671.5,126.8v4.9c-3.3,1.8-7.1,2.7-11.4,2.7c-3.5,0-6.5-0.7-8.9-2.1s-4.4-3.4-5.8-5.8s-2.1-5.2-2.1-8
			c0-4.6,1.6-8.4,4.9-11.5c3.3-3.1,7.3-4.7,12.1-4.7c3.3,0,7,0.9,11,2.6v4.8c-3.7-2.1-7.3-3.2-10.8-3.2c-3.6,0-6.6,1.1-9,3.4
			c-2.4,2.3-3.6,5.1-3.6,8.5c0,3.4,1.2,6.3,3.5,8.5c2.3,2.2,5.3,3.3,9,3.3C664.1,130.3,667.8,129.2,671.5,126.8z"/>
		<path class="st0" d="M688.2,102.5h3.2l14.1,31.6h-4.6l-4.2-9.3h-13.4l-3.9,9.3h-4.6L688.2,102.5z M694.8,120.8l-5.1-11.4
			l-4.7,11.4H694.8z"/>
		<path class="st0" d="M733.8,102.7h4.3v31.4h-3.9l-21-24.2v24.2H709v-31.4h3.6l21.2,24.4L733.8,102.7L733.8,102.7z"/>
		<path class="st0" d="M754.8,102.5h3.2l14.1,31.6h-4.6l-4.2-9.3h-13.4l-3.9,9.3h-4.6L754.8,102.5z M761.4,120.8l-5.1-11.4
			l-4.7,11.4H761.4z"/>
	</g>
	<g>
		<g>
			<path class="st0" d="M43.1,53.4c-7.3,7.3-13,15.8-17,25.2c-3.2,7.7-5.2,15.8-6,24.1h3.5c2.4-27,19.1-50,42.4-61.4l-1.7-3.1
				C56.5,42,49.4,47.1,43.1,53.4z"/>
			<path class="st0" d="M175,78.6c-4-9.5-9.7-18-17-25.2c-6.1-6.1-13-11.1-20.6-14.9l-1.7,3.1c24.9,12.5,42.1,38.2,42.1,67.9
				c0,11.6-2.6,22.7-7.3,32.5h3.9c0.2-0.5,0.5-1.1,0.7-1.6c4.1-9.8,6.2-20.2,6.2-30.9C181.2,98.8,179.1,88.4,175,78.6z"/>
		</g>
		<path class="st0" d="M67.4,102.7l0.8-6.7l-2.4-2.2c0,0-0.7-0.8,4.4-4.2c0,0,31.6-18.6,65.1-3.8c0,0,2.7,2.1-10.6-0.3
			c0,0-31.4-1.8-48.1,8.5l-2.3,11.5C74.4,105.5,72.8,102.8,67.4,102.7z"/>
		<path class="st0" d="M122.4,23.2c0,0-2.6-1.5-20.2-12.1l3.8,4.7c0,0,2.4,3,0.1,2.8c0,0-12.4-2.2-27,4.7c0,0,5.9-4.1,13.2-8.5
			c0,0,7-5,8.6-9.6L122.4,23.2z"/>
		<path class="st0" d="M132.9,75.2c0.3,0.2,0.7-0.1,0.6-0.5c-5.4-13.2-32.7-14.1-32.7-14.1c-17.1,0-28.1,7.1-31.3,9.8
			c-0.6,0.5-1,1.3-1.1,2.1l-0.4,4.2c0,0.5,0.5,0.8,0.9,0.5C74.1,73.4,100.2,56.3,132.9,75.2z"/>
		<path class="st0" d="M79.4,61.4c0,0,4.1-2.4,11.9-3.5V35.8c-3.5,0.6-6.9,1.7-10.2,3.4L79.4,61.4z"/>
		<path class="st0" d="M94.7,35.3v22.2c3.8-0.3,8.3-0.3,13.5,0.3V35.7C104.1,35.1,99.4,34.9,94.7,35.3z"/>
		<path class="st0" d="M124.5,61.3l-1.8-22.1c0,0-4.5-1.8-11.1-3v22.1C115.6,58.9,119.9,59.9,124.5,61.3z"/>
		<path class="st0" d="M128.1,38.8c-1.9-1.4-14-6.7-27.7-6.6c0,0-17.1,0.4-21.7,5.5l-2.2,24.7c0,0,0,0.5-0.1,0.8
			c-2,1.1-3.9,2.4-3.9,2.4l1.8-24.9c0,0-10.2-2.5-1.4-8.7c0,0,25.3-14.5,51.1-1.8c0,0,13.7,5.7,6,8.9
			C130,39.1,128.9,39.4,128.1,38.8z"/>
		<path class="st0" d="M32.3,108v48H20v-48H32.3z"/>
		<path class="st0" d="M41.3,108h22.1c5,0,9,1.4,12,4.2s4.4,6.2,4.4,10c0,4-1.5,7.4-4.4,10.2s-6.9,4.3-12,4.3h-9.8V156H41.3V108z
			 M53.7,116.8v11.1h5.8c5.1,0,7.7-1.9,7.7-5.6c0-2.1-0.7-3.5-2.1-4.3c-1.4-0.8-3.7-1.2-7-1.2L53.7,116.8L53.7,116.8z"/>
		<path class="st0" d="M125.1,108h12.4v27.3c0,7-2.1,12.3-6.4,15.9c-4.3,3.6-10.4,5.4-18.4,5.4c-7.9,0-14-1.8-18.3-5.5
			c-4.3-3.7-6.5-8.9-6.5-15.8V108h12.4v27.6c0,3.3,1.1,6,3.4,8c2.3,2,5.2,3,8.9,3c3.8,0,6.9-1,9.1-3.1s3.4-5,3.4-8.8L125.1,108
			L125.1,108z"/>
		<path class="st0" d="M181.4,146.5v9.5h-34.1v-48h12.4v38.5L181.4,146.5L181.4,146.5z"/>
		<path class="st0" d="M51.6,165.1h1.3l-2.8,6.3h-0.4l-1.8-4.3l-1.8,4.3h-0.4l-2.8-6.3h1.3l1.6,3.8l1.6-3.8h0.9l1.6,3.8L51.6,165.1z
			"/>
		<path class="st0" d="M66.4,165.1h1.3l-2.8,6.3h-0.4l-1.8-4.3l-1.8,4.3h-0.4l-2.8-6.3h1.3l1.6,3.8l1.6-3.8h0.9l1.6,3.8L66.4,165.1z
			"/>
		<path class="st0" d="M81.3,165.1h1.3l-2.8,6.3h-0.4l-1.8-4.3l-1.8,4.3h-0.4l-2.8-6.3H74l1.6,3.8l1.6-3.8h0.9l1.6,3.8L81.3,165.1z"
			/>
		<path class="st0" d="M88.1,169.8c0.2,0,0.4,0.1,0.6,0.2c0.2,0.2,0.2,0.4,0.2,0.6s-0.1,0.4-0.2,0.6c-0.2,0.1-0.4,0.2-0.6,0.2
			c-0.2,0-0.4-0.1-0.6-0.2s-0.2-0.3-0.2-0.6c0-0.2,0.1-0.4,0.2-0.6C87.7,169.9,87.9,169.8,88.1,169.8z"/>
		<path class="st0" d="M96.1,162.5c0.2,0,0.4,0.1,0.5,0.2s0.2,0.3,0.2,0.5c0,0.2-0.1,0.4-0.2,0.5c-0.1,0.1-0.3,0.2-0.5,0.2
			c-0.2,0-0.4-0.1-0.5-0.2s-0.2-0.3-0.2-0.5c0-0.2,0.1-0.4,0.2-0.5C95.7,162.6,95.9,162.5,96.1,162.5z M95.4,165.1h1.2v6.2h-1.2
			V165.1z"/>
		<path class="st0" d="M103.2,174.5v-9.4h2.2c1.1,0,2,0.3,2.6,0.8c0.6,0.6,0.9,1.3,0.9,2.3c0,0.9-0.3,1.7-0.9,2.3s-1.3,0.9-2.2,0.9
			c-0.4,0-0.8-0.1-1.3-0.3v3.3H103.2z M105.4,166.2h-0.9v3.8c0.4,0.2,0.8,0.3,1.2,0.3c0.6,0,1.1-0.2,1.4-0.6
			c0.4-0.4,0.6-0.9,0.6-1.6c0-0.4-0.1-0.8-0.3-1.1c-0.2-0.3-0.4-0.5-0.7-0.7C106.4,166.3,105.9,166.2,105.4,166.2z"/>
		<path class="st0" d="M119.1,171.3v-0.8c-0.3,0.3-0.6,0.5-0.9,0.7c-0.3,0.2-0.7,0.2-1,0.2c-0.4,0-0.8-0.1-1.1-0.3
			c-0.3-0.2-0.6-0.5-0.8-0.8s-0.2-0.9-0.2-1.7v-3.6h1.2v3.6c0,0.6,0.1,1.1,0.3,1.4s0.5,0.4,1,0.4c0.6,0,1.1-0.3,1.5-0.9v-4.4h1.2
			v6.2L119.1,171.3L119.1,171.3z"/>
		<path class="st0" d="M126.9,161.9h1.2v9.5h-1.2C126.9,171.3,126.9,161.9,126.9,161.9z"/>
		<path class="st0" d="M135.4,169.8c0.2,0,0.4,0.1,0.6,0.2s0.2,0.4,0.2,0.6s-0.1,0.4-0.2,0.6c-0.2,0.1-0.4,0.2-0.6,0.2
			s-0.4-0.1-0.6-0.2s-0.2-0.3-0.2-0.6c0-0.2,0.1-0.4,0.2-0.6C135,169.9,135.2,169.8,135.4,169.8z"/>
		<path class="st0" d="M146.7,171.3v-0.8c-0.3,0.3-0.6,0.5-0.9,0.7s-0.7,0.2-1,0.2c-0.4,0-0.8-0.1-1.1-0.3s-0.6-0.5-0.8-0.8
			s-0.2-0.9-0.2-1.7v-3.6h1.2v3.6c0,0.6,0.1,1.1,0.3,1.4s0.5,0.4,1,0.4c0.6,0,1.1-0.3,1.5-0.9v-4.4h1.2v6.2L146.7,171.3L146.7,171.3
			z"/>
		<path class="st0" d="M154.2,170.9v-1.3c0.4,0.2,0.7,0.4,1.1,0.6c0.4,0.1,0.7,0.2,0.9,0.2c0.3,0,0.5-0.1,0.7-0.2
			c0.2-0.1,0.3-0.3,0.3-0.4c0-0.2-0.1-0.3-0.2-0.4s-0.4-0.3-0.8-0.5c-0.8-0.4-1.3-0.8-1.6-1.1c-0.2-0.3-0.4-0.7-0.4-1
			c0-0.5,0.2-0.9,0.6-1.2s0.9-0.4,1.4-0.4c0.6,0,1.2,0.2,1.9,0.5v1.2c-0.7-0.4-1.3-0.7-1.8-0.7c-0.2,0-0.4,0.1-0.6,0.1
			c-0.1,0.1-0.2,0.2-0.2,0.4c0,0.1,0.1,0.3,0.2,0.4c0.1,0.1,0.4,0.3,0.7,0.5l0.4,0.2c1,0.6,1.6,1.2,1.6,1.9c0,0.5-0.2,0.9-0.6,1.3
			c-0.4,0.3-0.9,0.5-1.5,0.5c-0.4,0-0.7,0-1-0.1C155,171.2,154.6,171.1,154.2,170.9z"/>
	</g>
</g>
</svg>
